<svg xmlns="http://www.w3.org/2000/svg" width="32" height="32" id="keyboard"><g fill="#fff" transform="translate(7.99 -1028.363)"><circle cx="8.009" cy="1044.362" r="16" fill="#424242" fill-rule="evenodd"></circle><path fill="#1f212a" style="line-height:normal;text-indent:0;text-align:start;text-decoration-line:none;text-decoration-style:solid;text-decoration-color:#000;text-transform:none;block-progression:tb;isolation:auto;mix-blend-mode:normal" d="M19.982 31.482a16 16 0 0 0 .297-.066 16 16 0 0 0 1.518-.504 16 16 0 0 0 1.46-.652 16 16 0 0 0 1.388-.797 16 16 0 0 0 1.3-.93 16 16 0 0 0 1.201-1.054 16 16 0 0 0 1.092-1.172 16 16 0 0 0 .967-1.272 16 16 0 0 0 .836-1.365 16 16 0 0 0 .695-1.44 16 16 0 0 0 .55-1.501 16 16 0 0 0 .19-.752L24 12.5a.5.5 0 0 0-.5-.5h-14a.5.5 0 0 0-.5.5v8a.5.5 0 0 0 .5.5l10.482 10.482z" color="#000" font-family="sans-serif" font-weight="400" transform="translate(-7.99 1028.362)"></path><path style="line-height:normal;text-indent:0;text-align:start;text-decoration-line:none;text-decoration-style:solid;text-decoration-color:#000;text-transform:none;block-progression:tb;isolation:auto;mix-blend-mode:normal" d="M1.5 4a.5.5 0 0 0-.5.5v8a.5.5 0 0 0 .5.5h14a.5.5 0 0 0 .5-.5v-8a.5.5 0 0 0-.5-.5h-14ZM2 5h13v7H2V5Zm1 1v1h1V6H3Zm2 0v1h1V6H5Zm2 0v1h1V6H7Zm2 0v1h1V6H9zm2 0v1h1V6h-1zm2 0v1h1V6h-1zM4 8v1h1V8H4Zm2 0v1h1V8H6Zm2 0v1h1V8H8Zm2 0v1h1V8h-1zm2 0v1h1V8h-1zm-9 2v1h11v-1H3z" color="#000" font-family="sans-serif" font-weight="400" overflow="visible" transform="translate(.01 1036.363)"></path></g></svg>